<?xml version="1.0" standalone="no"?>
<!DOCTYPE svg PUBLIC "-//W3C//DTD SVG 20010904//EN"
 "http://www.w3.org/TR/2001/REC-SVG-20010904/DTD/svg10.dtd">
<svg version="1.0" xmlns="http://www.w3.org/2000/svg"
 width="1181.000000pt" height="353.000000pt" viewBox="0 0 1181.000000 353.000000"
 preserveAspectRatio="xMidYMid meet">
<metadata>
Created by potrace 1.16, written by Peter Selinger 2001-2019
</metadata>
<g transform="translate(0.000000,353.000000) scale(0.100000,-0.100000)"
fill="#000000" stroke="none">
<path d="M9015 2580 c-77 -44 -145 -88 -151 -97 -12 -19 -35 -405 -33 -563 0
-52 6 -153 12 -225 l12 -130 313 -3 c245 -2 313 0 317 10 22 66 22 550 -1 831
l-7 85 -150 86 c-82 47 -155 86 -161 85 -6 0 -74 -36 -151 -79z m150 -185 c28
-18 60 -38 73 -44 23 -12 23 -12 11 11 l-12 23 27 -24 c24 -23 25 -26 9 -35
-10 -6 -63 -11 -117 -11 -69 1 -90 -2 -68 -7 41 -11 54 -36 42 -78 -12 -40
-33 -65 -70 -80 -39 -16 -93 2 -109 36 -16 36 -14 45 15 75 l27 28 -24 -5
c-24 -4 -24 -4 1 7 14 6 36 17 50 23 14 6 25 16 26 21 0 6 10 32 22 58 15 33
26 46 34 41 7 -4 36 -22 63 -39z m180 -89 c56 -20 70 -43 54 -96 -10 -34 -20
-46 -47 -57 -60 -25 -113 3 -136 72 -17 49 -7 71 37 84 44 13 47 13 92 -3z
m-140 -92 c22 -58 64 -87 118 -80 48 5 85 38 93 83 7 37 8 37 34 23 19 -10 19
-12 -5 -66 -14 -31 -41 -78 -61 -105 -29 -39 -35 -56 -32 -86 l3 -38 -85 -3
c-47 -2 -131 0 -187 3 l-101 7 5 32 c4 28 -2 43 -41 96 -52 71 -66 108 -45
121 22 14 26 11 37 -20 19 -55 125 -66 169 -18 12 12 28 39 37 60 20 49 40 47
61 -9z"/>
<path d="M990 2367 c-63 -18 -109 -48 -164 -107 -69 -73 -90 -127 -90 -225 0
-68 4 -89 28 -137 16 -31 43 -69 60 -85 29 -26 30 -26 11 -2 -11 14 -6 10 13
-8 18 -18 37 -33 42 -33 6 0 10 -4 10 -9 0 -5 26 -19 58 -31 111 -42 258 -13
345 68 26 25 27 28 27 144 l0 118 -129 0 c-78 0 -131 -4 -134 -10 -3 -6 -4 -5
-3 2 2 9 39 15 132 19 l129 5 -130 0 c-128 -1 -129 -1 -144 -27 -15 -27 -8
-85 9 -74 6 3 10 1 10 -4 0 -7 28 -11 71 -11 l70 0 -3 -52 c-3 -45 -6 -53 -22
-50 -10 2 -16 -1 -13 -6 4 -4 -2 -8 -11 -8 -9 0 -30 -2 -47 -3 -30 -3 -30 -3
-5 -11 19 -6 9 -8 -35 -8 -38 0 -53 2 -40 7 16 7 15 9 -12 14 -16 3 -45 19
-64 34 -19 15 -27 19 -19 9 8 -11 29 -27 45 -38 17 -10 25 -18 18 -18 -21 0
-84 62 -79 77 3 8 1 11 -4 8 -17 -10 -40 60 -40 120 0 124 82 215 195 215 49
0 129 -35 119 -51 -5 -8 -3 -9 5 -5 7 5 20 1 30 -8 17 -16 21 -14 55 24 26 29
34 45 27 53 -5 7 -11 17 -13 22 -1 6 -6 9 -10 8 -4 -2 -26 9 -50 22 -24 14
-38 25 -33 25 6 0 25 -9 43 -20 19 -12 30 -16 27 -9 -14 22 -119 60 -179 64
-34 3 -81 -1 -106 -8z"/>
<path d="M2918 2367 c-26 -8 -55 -20 -65 -27 -41 -31 -72 -64 -68 -70 3 -5 -2
-24 -10 -44 -31 -73 -13 -143 47 -190 32 -23 81 -39 213 -68 37 -8 59 -18 57
-26 -1 -6 4 -11 10 -10 17 4 22 -45 9 -71 -10 -18 -21 -19 -116 -18 -57 1 -97
-1 -87 -5 9 -4 11 -7 4 -7 -16 -1 -82 26 -82 34 0 3 9 1 19 -5 11 -5 23 -10
28 -10 14 1 -62 39 -77 39 -10 0 -8 -3 5 -9 20 -8 20 -9 -1 -9 -12 -1 -26 -12
-32 -27 -7 -14 -16 -23 -21 -20 -5 4 -7 -3 -4 -15 14 -53 161 -105 278 -97 84
6 130 27 168 76 55 72 59 145 11 218 l-25 39 25 -28 c54 -59 58 -142 10 -213
-17 -24 -20 -33 -9 -24 25 21 55 89 55 125 0 70 -59 146 -135 175 -45 17 -194
42 -207 34 -6 -4 -8 -3 -4 4 3 6 2 13 -4 17 -14 9 -13 58 3 75 10 12 9 12 -6
0 -14 -10 -18 -24 -15 -51 2 -21 0 -35 -4 -33 -14 9 -9 72 7 87 44 45 148 46
234 3 l50 -26 20 34 c26 41 26 55 4 73 -16 13 -16 13 5 3 26 -13 28 -37 6 -68
-9 -13 -14 -26 -11 -29 7 -6 37 51 37 71 0 19 -45 50 -60 41 -6 -4 -9 -1 -8 5
4 17 -81 48 -148 54 -35 3 -78 0 -106 -7z"/>
<path d="M3545 2367 c-84 -28 -189 -105 -179 -131 3 -8 0 -17 -7 -22 -8 -5
-10 -3 -4 7 5 8 4 11 0 6 -5 -4 -10 -15 -11 -25 -1 -9 -10 -37 -19 -62 -12
-32 -16 -66 -13 -120 4 -66 11 -91 46 -164 3 -5 -2 -5 -9 -1 -8 5 -11 4 -6 -1
5 -5 12 -9 16 -9 4 0 24 -17 45 -39 58 -58 147 -96 223 -96 74 0 145 22 193
60 19 15 39 27 44 26 5 0 14 7 20 16 8 14 4 24 -23 52 -28 29 -37 33 -58 25
-13 -5 -27 -8 -31 -7 -4 1 -23 -8 -42 -21 -19 -13 -26 -20 -15 -16 16 5 18 4
7 -6 -6 -7 -42 -14 -80 -16 -50 -2 -62 0 -47 7 16 9 14 9 -13 5 -18 -2 -31 -1
-28 3 3 5 -8 16 -24 25 -15 10 -40 40 -54 69 -43 87 -31 183 32 253 l27 30
-29 -25 c-89 -77 -86 -234 6 -323 25 -24 27 -28 8 -16 -14 9 -38 37 -54 63
-41 65 -47 143 -16 213 25 60 62 98 85 89 9 -3 14 -2 11 3 -8 12 49 31 93 31
42 0 125 -35 117 -49 -4 -5 -1 -13 5 -17 8 -4 9 -3 5 4 -4 7 -3 12 3 12 5 0
13 -4 16 -10 11 -18 57 -5 81 23 32 38 30 50 -11 81 -92 71 -224 101 -310 73z"/>
<path d="M7455 2371 c-56 -16 -86 -31 -80 -41 3 -6 -1 -7 -9 -4 -10 4 -36 -14
-73 -51 -32 -31 -52 -54 -44 -50 7 4 12 4 9 -1 -2 -5 -15 -31 -28 -59 -35 -71
-35 -189 0 -260 13 -27 26 -54 28 -59 3 -5 -2 -5 -9 -1 -8 5 -5 -1 5 -13 11
-12 21 -20 24 -17 3 2 20 -9 39 -25 53 -47 112 -72 180 -78 78 -6 141 10 208
53 29 18 55 32 58 29 2 -2 10 2 17 11 10 12 7 21 -19 50 -17 20 -31 32 -31 28
0 -4 12 -20 27 -35 22 -23 25 -30 13 -41 -10 -10 -11 -9 -5 1 4 8 -2 24 -17
40 -14 15 -28 35 -31 45 -4 9 -12 17 -19 17 -9 0 -9 -3 2 -11 12 -9 11 -10 -6
-6 -12 2 -32 -6 -50 -21 -30 -25 -14 -20 21 7 17 13 17 12 -2 -8 -12 -13 -34
-25 -50 -26 -15 -1 -37 -3 -48 -4 l-20 -2 20 -9 c14 -6 2 -9 -40 -9 -38 0 -53
3 -40 8 16 7 14 9 -15 16 -19 5 -40 9 -47 9 -26 2 -94 89 -80 102 2 3 10 -9
16 -25 7 -16 25 -40 39 -53 l27 -23 -22 25 c-72 83 -74 220 -4 305 15 19 15
19 -2 6 -22 -17 -48 -64 -58 -106 -6 -24 -7 -26 -8 -7 -1 29 30 90 61 119 31
29 90 53 131 53 45 0 121 -27 143 -51 24 -27 38 -24 74 17 30 35 30 37 14 55
-10 11 -47 34 -83 52 -58 28 -75 32 -148 32 -57 0 -74 2 -55 8 74 22 233 -26
290 -86 l22 -24 -21 -29 -22 -29 28 27 29 28 -29 30 c-67 70 -222 115 -310 91z"/>
<path d="M8571 2367 c-47 -24 -60 -55 -67 -162 -7 -100 -20 -135 -51 -135 -9
0 -13 -13 -13 -40 0 -34 4 -42 24 -50 13 -5 27 -13 30 -19 4 -5 10 -58 15
-116 7 -95 11 -109 34 -132 18 -19 39 -27 76 -31 l51 -5 0 41 c0 34 -3 41 -25
46 -33 8 -41 31 -50 138 -6 79 -10 90 -33 109 -22 17 -24 22 -12 29 8 6 18 10
22 10 13 0 28 65 28 124 0 71 16 110 48 114 19 3 22 10 22 48 l0 44 -37 0
c-21 0 -49 -6 -62 -13z"/>
<path d="M9654 2367 c-12 -32 0 -72 23 -75 35 -5 44 -26 50 -109 4 -75 18
-133 32 -133 3 0 12 -4 20 -9 11 -7 9 -14 -14 -34 -27 -22 -29 -31 -35 -121
-5 -79 -10 -99 -26 -111 -10 -8 -25 -15 -31 -15 -8 0 -13 -15 -13 -41 l0 -42
51 5 c82 8 99 32 109 158 11 122 15 137 41 145 14 5 19 15 19 46 0 27 -4 39
-14 39 -24 0 -30 19 -42 138 -10 100 -14 117 -37 139 -31 32 -123 46 -133 20z"/>
<path d="M1718 2365 c-4 -4 -7 -151 -8 -326 l0 -319 55 0 c66 0 68 3 63 144
l-3 96 47 0 47 0 81 -120 82 -120 55 0 c54 0 55 1 51 25 -6 31 0 32 12 3 6
-16 9 -18 9 -6 1 9 -11 26 -26 38 -16 12 -21 19 -13 15 8 -4 4 3 -10 15 -14
12 -18 19 -10 15 8 -4 4 3 -10 15 -14 12 -18 19 -10 15 8 -4 4 3 -10 15 -14
12 -18 19 -10 15 8 -3 2 6 -15 20 -16 15 -23 24 -15 20 8 -4 4 3 -10 15 -14
12 -18 19 -10 15 9 -4 8 0 -3 8 -18 15 -17 16 4 22 24 8 109 87 109 101 0 5
-5 2 -11 -6 -9 -12 -10 -12 -5 3 3 10 6 26 7 35 0 14 2 13 9 -3 5 -14 8 -1 7
37 -1 36 -4 53 -10 45 -5 -8 -7 -2 -4 15 2 15 1 25 -3 23 -5 -3 -11 2 -14 11
-4 10 -2 13 7 8 6 -4 -2 6 -19 22 -16 16 -21 22 -10 14 l21 -15 -20 24 c-41
50 -98 65 -255 69 -80 2 -148 1 -152 -3z m307 -147 c24 -19 27 -26 22 -67 -6
-52 -34 -82 -76 -80 -23 1 -22 2 7 9 19 4 39 13 45 20 9 9 6 9 -13 1 -14 -6
-60 -15 -102 -19 l-77 -8 -3 83 -3 83 86 0 c73 0 90 -3 114 -22z"/>
<path d="M2290 2350 c-7 -12 -9 -125 -8 -322 l3 -303 203 -3 202 -2 0 50 0 50
-137 2 -138 2 140 6 140 6 -137 2 -138 2 0 248 c0 228 -2 250 -18 265 -27 25
-98 23 -112 -3z"/>
<path d="M3977 2364 c-3 -4 -6 -150 -7 -326 l0 -319 57 3 58 3 3 117 3 116 44
4 45 3 75 -112 c41 -62 73 -113 70 -113 -2 0 -36 47 -75 105 -39 58 -73 105
-76 105 -12 0 137 -215 151 -216 6 0 17 -4 26 -8 9 -4 36 -6 59 -4 34 2 45 8
51 25 5 14 4 25 -3 29 -7 5 -8 2 -3 -7 8 -12 6 -12 -8 0 -19 15 -23 36 -5 25
7 -4 8 -3 4 5 -4 6 -11 9 -15 6 -11 -6 -103 133 -96 145 3 5 0 12 -6 16 -8 5
-9 3 -4 -7 8 -12 6 -12 -8 0 -16 13 -15 15 10 28 16 8 38 24 51 36 13 12 25
20 27 17 2 -3 7 -1 12 4 5 5 3 6 -4 2 -17 -9 -16 3 2 34 8 14 14 47 15 73 0
91 -41 147 -132 178 -29 10 -45 18 -35 19 20 0 84 -25 107 -43 9 -7 6 -2 -7
10 -39 37 -114 53 -253 53 -70 0 -129 -3 -133 -6z m319 -149 c19 -26 18 -99
-2 -116 -9 -7 -33 -13 -53 -12 l-36 2 30 -9 c27 -8 26 -9 -10 -5 -22 3 -57 5
-77 5 l-38 0 -2 78 -2 77 -6 -85 -6 -85 -2 90 -2 90 96 -5 c79 -5 99 -9 110
-25z"/>
<path d="M4547 2352 c-16 -17 -17 -48 -14 -323 l2 -304 3 306 c1 221 5 308 14
317 7 7 32 11 58 10 l45 -1 -50 -6 -50 -6 0 -310 0 -310 55 0 55 0 0 320 0
320 -51 3 c-39 2 -54 -1 -67 -16z"/>
<path d="M4807 2353 c-16 -18 -17 -45 -14 -324 l2 -304 3 306 c1 221 5 308 14
317 8 8 52 11 143 10 l130 -2 -135 -6 -135 -5 0 -310 0 -310 55 0 55 0 3 120
3 120 67 -3 c103 -6 165 12 217 61 62 60 78 125 49 202 -8 22 -16 46 -18 53
-1 7 -8 18 -16 25 -10 9 -11 9 -6 0 11 -19 -9 -16 -25 4 -10 11 -10 14 -1 9 6
-4 12 -5 12 -2 0 3 -19 16 -42 28 -38 19 -62 23 -193 26 -139 4 -151 3 -168
-15z m321 -131 c12 -7 22 -18 22 -25 0 -7 -4 -6 -10 3 -6 10 -8 4 -4 -21 4
-22 1 -46 -7 -60 -7 -13 -13 -26 -12 -29 1 -3 -15 -5 -35 -3 -37 2 -37 2 -7
-7 27 -8 26 -9 -10 -5 -22 3 -57 5 -77 5 l-38 0 -2 78 -2 77 -6 -85 -6 -85 -2
90 -2 90 87 -5 c49 -3 98 -11 111 -18z"/>
<path d="M5286 2351 c-12 -14 -16 -31 -13 -62 l4 -44 1 46 c1 25 7 50 14 57 9
9 80 11 268 10 l255 -2 -260 -6 -260 -5 -3 -52 -3 -53 105 0 106 0 0 -260 0
-261 58 3 57 3 3 258 2 257 99 0 c81 0 100 3 105 16 8 22 8 69 -1 78 -5 4 -8
13 -8 19 0 9 -69 13 -256 15 -241 2 -257 1 -273 -17z"/>
<path d="M6075 2337 c-4 -19 -5 -47 -3 -63 l3 -29 102 -3 103 -3 2 -257 3
-257 55 0 55 0 3 258 2 257 106 0 105 0 -3 53 -3 52 -260 5 -260 6 256 2 c187
1 258 -1 267 -10 7 -7 13 -32 14 -58 l1 -45 4 44 c3 31 -1 48 -13 62 -16 18
-34 19 -275 19 l-258 0 -6 -33z"/>
<path d="M6689 2365 c-1 -3 -2 -9 -3 -14 0 -5 -4 -13 -8 -17 -14 -13 -10 -588
4 -602 9 -9 73 -12 225 -12 l213 0 0 50 0 50 -160 0 -160 0 0 80 0 80 146 0
c81 0 154 5 165 10 14 8 19 21 19 49 0 64 -16 71 -173 71 l-136 0 -4 63 -3 62
-2 -67 -2 -68 143 0 c98 0 147 -4 155 -12 7 -7 11 -30 10 -53 l-1 -40 -6 45
-6 45 -152 3 -153 3 0 74 0 74 158 3 157 3 0 50 0 50 -215 5 -215 6 211 2
c152 1 213 -1 222 -10 7 -7 13 -32 14 -58 l1 -45 4 44 c3 31 -1 48 -13 62 -16
18 -34 19 -226 19 -114 0 -209 -2 -209 -5z"/>
<path d="M7863 2355 l-23 -16 2 -302 3 -302 2 300 c2 164 7 303 11 307 4 4 6
-124 4 -285 -1 -161 0 -302 3 -314 5 -20 12 -23 60 -23 l55 0 0 130 0 130 143
0 142 0 -3 -97 c-2 -53 -1 -112 3 -130 6 -33 7 -33 60 -33 30 0 56 1 57 3 6 6
12 625 7 621 -4 -2 -9 3 -13 11 -7 19 -91 21 -103 3 -4 -7 -10 -67 -14 -133
l-7 -120 2 117 c0 64 -2 114 -6 111 -5 -2 -8 -56 -8 -119 l0 -116 -125 4 c-78
2 -126 -1 -127 -7 -1 -5 -5 53 -8 130 l-5 140 -45 3 c-29 2 -53 -3 -67 -13z"/>
<path d="M1457 2343 c-4 -3 -7 -145 -7 -315 l0 -309 58 3 57 3 3 304 c2 237
-1 306 -10 313 -16 9 -92 11 -101 1z"/>
<path d="M5908 1858 c-38 -37 -41 -95 -8 -128 42 -42 104 -14 119 52 5 21 5
36 1 33 -7 -4 -21 20 -21 35 0 7 -42 29 -56 30 -7 0 -22 -10 -35 -22z"/>
<path d="M900 1450 l0 -140 96 0 c86 0 95 2 92 18 -3 14 -16 18 -71 20 l-67 3
0 39 0 40 66 0 c57 0 65 2 62 18 -3 14 -14 17 -66 17 l-62 0 0 43 0 42 70 0
c63 0 70 2 70 20 0 19 -7 20 -95 20 l-95 0 0 -140z"/>
<path d="M1230 1451 l0 -141 75 -1 c41 -1 79 -2 83 -3 5 -1 23 16 42 37 27 31
34 49 38 91 8 101 -35 142 -163 153 l-75 6 0 -142z m125 89 c4 -6 11 -8 16 -4
5 3 8 0 7 -8 -2 -7 2 -12 9 -11 34 7 43 -111 11 -143 -8 -8 -38 -18 -66 -23
l-52 -8 0 103 0 104 34 0 c19 0 38 -5 41 -10z"/>
<path d="M1608 1473 l-4 -118 29 -30 c25 -26 37 -30 82 -30 30 0 51 4 47 9 -3
5 3 6 14 2 10 -4 16 -4 12 -1 -3 3 5 17 18 30 24 24 25 30 22 137 -3 109 -4
113 -25 116 -23 3 -23 2 -23 -106 0 -76 -4 -113 -13 -120 -23 -19 -61 -23 -82
-8 -17 12 -21 29 -25 123 -5 101 -6 108 -27 111 -21 3 -21 -1 -25 -115z"/>
<path d="M2045 1580 c-70 -29 -98 -141 -56 -226 12 -24 27 -47 33 -50 7 -4 8
-2 4 4 -5 8 2 8 24 0 17 -6 48 -8 68 -4 26 4 32 2 22 -4 -9 -6 -10 -10 -3 -10
23 0 72 50 66 67 -4 10 -2 14 4 10 6 -4 8 3 5 18 -6 35 -38 32 -57 -5 -29 -57
-104 -48 -131 17 -30 70 9 153 70 153 32 0 66 -25 66 -48 0 -20 50 -14 51 6 0
14 2 14 9 -3 8 -18 9 -18 9 -2 1 21 -43 65 -77 78 -28 11 -80 11 -107 -1z"/>
<path d="M2405 1513 c-15 -43 -38 -106 -51 -141 l-24 -63 37 3 c33 3 38 7 51
46 13 41 16 43 50 40 32 -3 37 -7 50 -45 11 -35 18 -43 38 -43 13 0 24 6 24
13 0 8 4 7 11 -3 8 -12 9 -11 5 5 -26 93 -86 250 -95 248 -6 -2 -11 2 -11 7 0
6 -13 10 -29 10 -26 0 -30 -5 -56 -77z"/>
<path d="M2690 1570 c0 -17 7 -20 43 -21 23 -1 45 -1 50 0 4 0 7 -53 7 -119
l0 -120 25 0 25 0 2 123 2 122 6 -125 6 -125 2 123 2 122 35 0 c28 0 35 4 35
20 0 19 -7 20 -120 20 -113 0 -120 -1 -120 -20z"/>
<path d="M3320 1576 c-14 -8 -28 -12 -31 -10 -4 2 -13 -4 -20 -13 -12 -14 -12
-16 0 -9 9 6 12 5 9 -5 -3 -8 -9 -13 -14 -12 -16 2 -15 -105 1 -143 18 -43 18
-47 5 -39 -16 10 -11 -1 7 -16 14 -12 16 -12 9 1 -4 8 1 4 12 -9 17 -21 29
-25 80 -25 33 -1 58 2 56 5 -2 4 3 10 12 13 10 4 13 2 7 -7 -16 -27 43 22 65
53 16 24 22 47 22 85 0 52 -32 120 -55 118 -5 -1 -17 4 -25 11 -21 18 -110 19
-140 2z m114 -68 c8 -24 17 -54 19 -68 4 -24 4 -24 6 3 0 15 -6 43 -14 63 -8
19 -10 32 -5 29 17 -10 33 -82 26 -117 -10 -53 -28 -71 -75 -74 -34 -2 -45 3
-61 23 -11 14 -20 35 -19 47 1 15 3 12 10 -11 5 -18 14 -35 20 -39 7 -4 7 1
-1 15 -13 25 -16 87 -5 121 5 17 4 21 -6 15 -8 -5 -6 0 3 11 10 11 32 21 52
22 32 2 35 0 50 -40z"/>
<path d="M3670 1450 l0 -140 25 0 c25 0 25 1 26 83 2 97 2 87 -6 112 -4 11 20
-28 52 -87 55 -103 60 -108 91 -108 l32 0 0 140 c0 132 -1 140 -19 140 -11 0
-22 -4 -25 -8 -8 -13 -9 -175 -1 -197 4 -11 -21 31 -55 93 -56 104 -63 112
-90 112 l-30 0 0 -140z"/>
<path d="M4240 1450 l0 -140 25 0 c24 0 25 3 25 60 l0 60 66 0 c57 0 65 2 62
18 -2 13 -15 18 -56 20 l-52 3 0 40 0 39 66 0 c57 0 65 2 62 18 -3 14 -17 17
-101 20 l-97 3 0 -141z"/>
<path d="M4780 1451 l0 -141 25 0 c24 0 25 3 27 58 l1 57 7 -60 7 -60 1 58 2
57 31 -2 c33 -3 50 -28 48 -71 -1 -13 -5 -5 -10 17 -13 56 -21 59 -13 6 8 -52
29 -80 58 -79 20 1 20 2 1 6 -33 8 -38 20 -5 15 29 -4 30 -4 23 29 -4 19 -8
46 -8 61 0 14 -3 24 -7 22 -18 -11 -17 19 1 42 27 34 26 57 -1 89 -20 22 -33
26 -105 32 l-83 6 0 -142z"/>
<path d="M5170 1581 c-8 -6 -17 -8 -21 -6 -3 3 -14 -4 -24 -15 -23 -25 -24
-76 -2 -96 9 -8 12 -9 7 -2 -6 7 -10 19 -10 27 0 9 9 0 19 -19 11 -21 25 -34
35 -32 9 2 16 -1 16 -7 0 -5 10 -7 22 -3 16 4 19 2 13 -8 -6 -10 -4 -12 7 -7
19 7 38 -11 38 -35 0 -20 -42 -41 -69 -36 -9 2 -22 16 -29 31 -9 18 -21 27
-38 27 -13 0 -24 -5 -24 -10 0 -14 39 -90 46 -90 3 0 2 4 -1 10 -3 6 1 7 9 4
9 -3 14 -9 12 -13 -2 -3 18 -6 44 -6 27 0 46 4 42 9 -3 5 3 6 14 2 10 -4 16
-4 12 -1 -3 4 2 15 13 26 26 26 25 80 -2 105 -11 10 -42 26 -67 35 -42 14 -47
19 -47 45 0 26 3 29 33 30 18 1 35 -4 39 -9 4 -6 1 -7 -7 -2 -10 6 -12 4 -7
-9 4 -10 7 -21 7 -24 0 -4 5 0 10 8 6 10 10 11 10 3 0 -7 11 -13 25 -13 34 0
32 24 -4 61 -22 22 -39 29 -68 29 -21 0 -45 -4 -53 -9z"/>
<path d="M5440 1570 c0 -17 6 -20 40 -20 l40 0 2 -122 2 -123 6 125 6 125 2
-122 2 -123 25 0 25 0 0 120 0 120 46 0 c38 0 45 3 42 18 -3 15 -18 17 -121
20 -112 3 -117 2 -117 -18z"/>
<path d="M8857 1543 c-4 -3 -7 -10 -7 -15 0 -4 144 -8 320 -8 278 0 320 2 320
15 0 13 -41 15 -313 15 -173 0 -317 -3 -320 -7z"/>
</g>
</svg>
